<?xml version="1.0" standalone="no"?>
<!DOCTYPE svg PUBLIC "-//W3C//DTD SVG 20010904//EN"
 "http://www.w3.org/TR/2001/REC-SVG-20010904/DTD/svg10.dtd">
<svg version="1.0" xmlns="http://www.w3.org/2000/svg"
 width="200.000000pt" height="200.000000pt" viewBox="0 0 200.000000 200.000000"
 preserveAspectRatio="xMidYMid meet">

<g transform="translate(0.000000,200.000000) scale(0.100000,-0.100000)"
fill="#6FCF8D" stroke="none">
<path d="M66 1739 l-26 -20 0 -613 c0 -602 0 -613 20 -634 21 -22 23 -22 380
-22 l360 0 0 -25 c0 -41 -28 -98 -67 -133 -57 -53 -45 -57 230 -60 255 -4 327
1 327 22 0 6 -16 27 -35 46 -33 32 -45 57 -59 123 l-6 27 353 0 c303 0 356 2
375 16 l22 15 0 624 0 624 -22 15 c-20 14 -124 16 -924 16 -897 0 -901 0 -928
-21z m1794 -549 l0 -490 -870 0 -870 0 0 490 0 490 870 0 870 0 0 -490z m-840
-625 c20 -24 3 -57 -28 -53 -27 3 -39 26 -28 54 7 18 40 18 56 -1z"/>
<path d="M970 1208 c-35 -117 -65 -219 -68 -226 -3 -10 4 -13 29 -10 l33 3 58
195 c79 267 76 250 40 250 l-29 0 -63 -212z"/>
<path d="M700 1256 c-125 -59 -135 -65 -138 -93 -3 -28 1 -31 135 -93 76 -35
141 -65 146 -67 4 -2 7 11 7 29 0 33 -2 34 -105 78 -58 25 -105 48 -105 51 0
4 46 26 103 51 97 42 102 46 105 76 2 18 0 32 -5 31 -4 0 -69 -29 -143 -63z"/>
<path d="M1130 1291 c0 -27 6 -31 117 -79 l117 -50 -39 -17 c-175 -71 -190
-79 -193 -114 -3 -25 0 -32 10 -29 7 3 75 34 151 69 135 61 138 63 135 92 -3
28 -12 34 -142 93 -77 35 -143 64 -148 64 -4 0 -8 -13 -8 -29z"/>
</g>
</svg>
