<svg display="none">
	<defs>
		<g id="img-vscode">
			<path xmlns="http://www.w3.org/2000/svg" fill="#000000" fill-rule="evenodd" d="M11.573 0.275 C 11.507 0.294,11.421 0.327,11.382 0.348 C 11.343 0.369,9.999 1.520,8.396 2.906 C 6.792 4.291,5.462 5.424,5.440 5.424 C 5.418 5.424,4.776 4.956,4.013 4.384 C 3.251 3.813,2.585 3.327,2.533 3.306 C 2.383 3.243,2.065 3.256,1.920 3.330 C 1.754 3.416,0.189 4.975,0.094 5.150 C -0.036 5.390,-0.020 5.704,0.134 5.916 C 0.175 5.973,0.709 6.473,1.319 7.026 C 1.930 7.579,2.426 8.041,2.421 8.052 C 2.417 8.064,1.926 8.494,1.330 9.009 C 0.734 9.523,0.208 9.990,0.162 10.045 C -0.015 10.259,-0.044 10.597,0.093 10.849 C 0.189 11.024,1.752 12.583,1.920 12.670 C 2.086 12.757,2.417 12.759,2.573 12.675 C 2.632 12.644,3.273 12.173,3.997 11.629 L 5.315 10.641 5.424 10.741 C 5.484 10.796,6.713 11.909,8.154 13.214 C 10.000 14.885,10.820 15.610,10.926 15.667 L 11.076 15.747 11.750 15.747 L 12.424 15.747 14.055 14.933 C 15.555 14.185,15.695 14.110,15.803 13.991 C 16.016 13.754,16.000 14.232,16.000 8.253 C 16.000 2.432,16.009 2.785,15.849 2.554 C 15.791 2.470,15.439 2.223,14.215 1.406 C 13.358 0.834,12.602 0.341,12.535 0.311 C 12.435 0.266,12.348 0.255,12.053 0.248 C 11.816 0.243,11.652 0.252,11.573 0.275 M13.272 2.580 L 14.505 3.400 14.506 8.220 L 14.507 13.040 13.302 13.640 L 12.098 14.240 11.813 14.240 L 11.529 14.240 8.660 11.644 C 7.082 10.216,5.748 9.028,5.697 9.003 C 5.498 8.909,5.197 8.902,5.036 8.989 C 5.002 9.007,4.385 9.464,3.664 10.004 C 2.943 10.545,2.342 10.987,2.329 10.987 C 2.299 10.987,1.852 10.539,1.868 10.525 C 2.541 9.948,3.946 8.731,4.050 8.634 C 4.136 8.553,4.219 8.442,4.260 8.354 C 4.317 8.227,4.325 8.180,4.314 8.011 C 4.304 7.853,4.286 7.788,4.223 7.687 C 4.170 7.601,3.769 7.221,2.994 6.520 L 1.844 5.480 2.075 5.247 C 2.202 5.118,2.317 5.013,2.331 5.013 C 2.344 5.013,2.975 5.478,3.731 6.046 C 5.227 7.169,5.268 7.194,5.541 7.162 C 5.619 7.153,5.733 7.122,5.794 7.093 C 5.856 7.064,6.297 6.703,6.773 6.291 C 7.250 5.879,7.784 5.417,7.960 5.265 C 8.136 5.113,9.120 4.263,10.147 3.375 C 11.173 2.488,12.019 1.761,12.026 1.761 C 12.034 1.760,12.594 2.129,13.272 2.580 M11.640 4.257 C 11.611 4.263,11.539 4.286,11.480 4.308 C 11.421 4.329,10.401 5.046,9.213 5.901 C 6.867 7.590,6.920 7.547,6.851 7.854 C 6.825 7.969,6.825 8.031,6.851 8.146 C 6.919 8.453,6.868 8.410,9.213 10.099 C 10.401 10.954,11.427 11.675,11.493 11.700 C 11.840 11.833,12.236 11.671,12.422 11.320 L 12.493 11.187 12.493 8.000 L 12.493 4.813 12.422 4.680 C 12.333 4.512,12.208 4.391,12.053 4.324 C 11.926 4.268,11.729 4.236,11.640 4.257 M10.980 8.757 L 10.973 9.514 9.927 8.764 C 9.352 8.351,8.881 8.007,8.881 8.000 C 8.881 7.993,9.352 7.649,9.927 7.236 L 10.973 6.486 10.980 7.243 C 10.984 7.659,10.984 8.341,10.980 8.757"/>
		</g>
		<g id="img-not-found">
			<path xmlns="http://www.w3.org/2000/svg" fill="#000000" fill-rule="evenodd" d="M7.493 0.015 C 7.442 0.021,7.268 0.039,7.107 0.055 C 5.234 0.242,3.347 1.208,2.071 2.634 C 0.660 4.211,-0.057 6.168,0.009 8.253 C 0.124 11.854,2.599 14.903,6.110 15.771 C 8.169 16.280,10.433 15.917,12.227 14.791 C 14.017 13.666,15.270 11.933,15.771 9.887 C 15.943 9.186,15.983 8.829,15.983 8.000 C 15.983 7.171,15.943 6.814,15.771 6.113 C 14.979 2.878,12.315 0.498,9.000 0.064 C 8.716 0.027,7.683 -0.006,7.493 0.015 M8.853 1.563 C 9.548 1.653,10.198 1.848,10.840 2.160 C 11.538 2.500,12.020 2.846,12.587 3.413 C 13.154 3.980,13.500 4.462,13.840 5.160 C 14.285 6.075,14.486 6.958,14.486 8.000 C 14.486 9.054,14.284 9.932,13.826 10.867 C 13.654 11.218,13.307 11.781,13.145 11.972 L 13.090 12.037 8.527 7.473 L 3.963 2.910 4.028 2.855 C 4.219 2.693,4.782 2.346,5.133 2.174 C 6.305 1.600,7.555 1.395,8.853 1.563 M7.480 8.534 L 12.040 13.095 11.973 13.148 C 11.734 13.338,11.207 13.662,10.867 13.828 C 10.239 14.135,9.591 14.336,8.880 14.444 C 8.456 14.509,7.544 14.509,7.120 14.444 C 5.172 14.148,3.528 13.085,2.493 11.451 C 2.279 11.114,1.999 10.526,1.859 10.119 C 1.468 8.989,1.403 7.738,1.670 6.535 C 1.849 5.734,2.268 4.820,2.766 4.147 C 2.836 4.052,2.899 3.974,2.907 3.974 C 2.914 3.974,4.972 6.026,7.480 8.534"/>
		</g>
		<g id="img-prettier">
			<path xmlns="http://www.w3.org/2000/svg" fill="#000000" fill-rule="evenodd" d="M3.707 1.815 C 3.450 1.931,3.282 2.167,3.260 2.442 C 3.235 2.750,3.376 3.005,3.657 3.161 L 3.800 3.240 6.000 3.240 L 8.200 3.240 8.337 3.168 C 8.614 3.022,8.765 2.750,8.740 2.442 C 8.718 2.167,8.550 1.931,8.293 1.815 C 8.176 1.762,8.128 1.761,6.000 1.761 C 3.872 1.761,3.824 1.762,3.707 1.815 M10.740 1.798 C 10.429 1.909,10.208 2.274,10.257 2.595 C 10.300 2.873,10.520 3.136,10.775 3.211 C 10.965 3.268,11.538 3.269,11.726 3.213 C 11.907 3.159,12.108 2.978,12.186 2.796 C 12.259 2.625,12.254 2.340,12.173 2.173 C 12.099 2.021,11.915 1.852,11.769 1.803 C 11.607 1.747,10.891 1.744,10.740 1.798 M3.707 5.309 C 3.110 5.578,3.102 6.402,3.693 6.683 C 3.826 6.746,3.834 6.746,4.749 6.746 L 5.671 6.747 5.835 6.665 C 6.106 6.530,6.247 6.302,6.247 6.000 C 6.247 5.698,6.106 5.470,5.835 5.335 L 5.671 5.253 4.749 5.254 C 3.880 5.254,3.820 5.258,3.707 5.309 M8.293 5.278 C 7.978 5.374,7.761 5.668,7.761 6.000 C 7.761 6.395,8.050 6.709,8.442 6.740 C 8.751 6.765,9.006 6.624,9.160 6.343 C 9.227 6.221,9.238 6.171,9.238 6.000 C 9.238 5.829,9.227 5.779,9.160 5.657 C 9.065 5.483,8.915 5.350,8.752 5.295 C 8.625 5.251,8.407 5.244,8.293 5.278 M11.237 5.296 C 11.083 5.351,10.917 5.502,10.833 5.663 C 10.774 5.776,10.761 5.835,10.761 6.000 C 10.761 6.242,10.841 6.420,11.016 6.569 C 11.224 6.748,11.243 6.750,12.550 6.741 C 13.692 6.734,13.723 6.732,13.827 6.676 C 14.085 6.536,14.239 6.284,14.239 6.000 C 14.239 5.716,14.085 5.464,13.827 5.324 C 13.722 5.268,13.695 5.267,12.533 5.262 C 11.544 5.257,11.328 5.263,11.237 5.296 M3.779 8.785 C 3.426 8.911,3.228 9.211,3.260 9.569 C 3.278 9.763,3.349 9.905,3.499 10.044 C 3.706 10.235,3.761 10.245,4.548 10.235 L 5.240 10.227 5.364 10.154 C 5.700 9.956,5.841 9.532,5.681 9.195 C 5.597 9.017,5.399 8.840,5.225 8.789 C 5.036 8.732,3.934 8.730,3.779 8.785 M7.779 8.785 C 7.426 8.911,7.228 9.211,7.260 9.569 C 7.284 9.836,7.454 10.071,7.707 10.185 C 7.824 10.237,7.874 10.239,9.735 10.239 C 11.881 10.240,11.799 10.247,12.007 10.044 C 12.163 9.893,12.222 9.758,12.235 9.531 C 12.249 9.283,12.178 9.112,11.994 8.946 C 11.765 8.740,11.835 8.747,9.735 8.748 C 8.245 8.749,7.860 8.756,7.779 8.785 M3.808 12.277 C 3.120 12.466,3.065 13.402,3.724 13.700 C 3.817 13.742,3.956 13.747,5.253 13.747 L 6.680 13.747 6.805 13.684 C 7.062 13.557,7.253 13.265,7.253 13.000 C 7.253 12.735,7.062 12.443,6.805 12.316 L 6.680 12.253 5.307 12.248 C 4.252 12.244,3.904 12.250,3.808 12.277"/>
		</g>
		<g id="img-error">
			<path xmlns="http://www.w3.org/2000/svg" fill="#000000" fill-rule="evenodd" d="M7.493 0.015 C 7.442 0.021,7.268 0.039,7.107 0.055 C 5.234 0.242,3.347 1.208,2.071 2.634 C 0.660 4.211,-0.057 6.168,0.009 8.253 C 0.124 11.854,2.599 14.903,6.110 15.771 C 8.169 16.280,10.433 15.917,12.227 14.791 C 14.017 13.666,15.270 11.933,15.771 9.887 C 15.943 9.186,15.983 8.829,15.983 8.000 C 15.983 7.171,15.943 6.814,15.771 6.113 C 14.979 2.878,12.315 0.498,9.000 0.064 C 8.716 0.027,7.683 -0.006,7.493 0.015 M8.853 1.563 C 9.967 1.707,11.010 2.136,11.944 2.834 C 12.273 3.080,12.920 3.727,13.166 4.056 C 13.727 4.807,14.142 5.690,14.330 6.535 C 14.544 7.500,14.544 8.500,14.330 9.465 C 13.916 11.326,12.605 12.978,10.867 13.828 C 10.239 14.135,9.591 14.336,8.880 14.444 C 8.456 14.509,7.544 14.509,7.120 14.444 C 5.172 14.148,3.528 13.085,2.493 11.451 C 2.279 11.114,1.999 10.526,1.859 10.119 C 1.618 9.422,1.514 8.781,1.514 8.000 C 1.514 6.961,1.715 6.075,2.160 5.160 C 2.500 4.462,2.846 3.980,3.413 3.413 C 3.980 2.846,4.462 2.500,5.160 2.160 C 6.313 1.599,7.567 1.397,8.853 1.563 M7.706 4.290 C 7.482 4.363,7.355 4.491,7.293 4.705 C 7.257 4.827,7.253 5.106,7.259 6.816 C 7.267 8.786,7.267 8.787,7.325 8.896 C 7.398 9.033,7.538 9.157,7.671 9.204 C 7.803 9.250,8.197 9.250,8.329 9.204 C 8.462 9.157,8.602 9.033,8.675 8.896 C 8.733 8.787,8.733 8.786,8.741 6.816 C 8.749 4.664,8.749 4.662,8.596 4.481 C 8.472 4.333,8.339 4.284,8.040 4.276 C 7.893 4.272,7.743 4.278,7.706 4.290 M7.786 10.530 C 7.597 10.592,7.410 10.753,7.319 10.932 C 7.249 11.072,7.237 11.325,7.294 11.495 C 7.388 11.780,7.697 12.000,8.000 12.000 C 8.303 12.000,8.612 11.780,8.706 11.495 C 8.763 11.325,8.751 11.072,8.681 10.932 C 8.616 10.804,8.460 10.646,8.333 10.580 C 8.217 10.520,7.904 10.491,7.786 10.530"/>
		</g>
		<g id="img-vim">
			<path xmlns="http://www.w3.org/2000/svg" fill="#000000" d="M0 0.786012C0 0.351909 0.335786 0 0.75 0H6.55508C6.9693 0 7.30508 0.351909 7.30508 0.786012V3.93006C7.30508 4.35524 6.98295 4.70158 6.58051 4.71563V6.09604L8.55754 4.23253C8.52047 4.13942 8.5 4.03725 8.5 3.93006V0.786012C8.5 0.351909 8.83579 0 9.25 0H15.25C15.6642 0 16 0.351909 16 0.786012V3.93006C16 4.1486 15.9132 4.35728 15.7604 4.506L4.16716 15.7899C4.02844 15.925 3.84611 16 3.65678 16H2.20763C2.05956 16 1.9148 15.9541 1.7916 15.868L1.06703 15.3617C0.858377 15.216 0.733051 14.9705 0.733051 14.7077V4.71587C0.326665 4.70643 0 4.35822 0 3.93006V0.786012ZM1.5 3.14424C1.90639 3.15369 2.23305 3.50189 2.23305 3.93006V14.2871L2.43471 14.428H3.36223L14.5 3.58734V1.57202H10V3.14405C10.3106 3.14405 10.589 3.34467 10.7003 3.64858C10.8115 3.95249 10.7325 4.29681 10.5015 4.51447L6.33204 8.44453C6.11186 8.65207 5.79577 8.7044 5.52526 8.57808C5.25476 8.45177 5.08051 8.17047 5.08051 7.86012V3.93006C5.08051 3.50487 5.40264 3.15854 5.80508 3.14449V1.57202H1.5V3.14424Z"/>
		</g>
		<g id="img-javascript">
			<path xmlns="http://www.w3.org/2000/svg" fill="#000000" d="M0 1.75C0 0.783501 0.783502 0 1.75 0H14.25C15.2165 0 16 0.783502 16 1.75V3.75C16 4.16421 15.6642 4.5 15.25 4.5C14.8358 4.5 14.5 4.16421 14.5 3.75V1.75C14.5 1.61193 14.3881 1.5 14.25 1.5H1.75C1.61193 1.5 1.5 1.61193 1.5 1.75V14.25C1.5 14.3881 1.61193 14.5 1.75 14.5H15.25C15.6642 14.5 16 14.8358 16 15.25C16 15.6642 15.6642 16 15.25 16H1.75C0.783501 16 0 15.2165 0 14.25V1.75ZM8.25 5.75C8.66421 5.75 9 6.08579 9 6.5V10.5C9 11.5048 8.72399 12.2584 8.15514 12.7324C7.61223 13.1848 6.95384 13.25 6.5 13.25C6.08579 13.25 5.75 12.9142 5.75 12.5C5.75 12.0858 6.08579 11.75 6.5 11.75C6.84617 11.75 7.06277 11.6902 7.19486 11.5801C7.301 11.4916 7.5 11.2452 7.5 10.5V6.5C7.5 6.08579 7.83578 5.75 8.25 5.75ZM11.2757 6.58011C11.6944 6.08164 12.3507 5.75 13.25 5.75C14.0849 5.75 14.7148 6.03567 15.1394 6.48481C15.4239 6.78583 15.4105 7.26052 15.1095 7.54505C14.8085 7.82958 14.3338 7.81621 14.0493 7.51519C13.9394 7.39898 13.7204 7.25 13.25 7.25C12.7493 7.25 12.5306 7.41836 12.4243 7.54489C12.2934 7.70065 12.25 7.896 12.25 8C12.25 8.104 12.2934 8.29935 12.4243 8.45511C12.5306 8.58164 12.7493 8.75 13.25 8.75C13.3257 8.75 13.3988 8.76121 13.4676 8.78207C14.1307 8.87646 14.6319 9.17251 14.9743 9.58011C15.3684 10.0493 15.5 10.604 15.5 11C15.5 11.396 15.3684 11.9507 14.9743 12.4199C14.5556 12.9184 13.8993 13.25 13 13.25C12.1651 13.25 11.5352 12.9643 11.1106 12.5152C10.8261 12.2142 10.8395 11.7395 11.1405 11.4549C11.4415 11.1704 11.9162 11.1838 12.2007 11.4848C12.3106 11.601 12.5296 11.75 13 11.75C13.5007 11.75 13.7194 11.5816 13.8257 11.4551C13.9566 11.2993 14 11.104 14 11C14 10.896 13.9566 10.7007 13.8257 10.5449C13.7194 10.4184 13.5007 10.25 13 10.25C12.9243 10.25 12.8512 10.2388 12.7824 10.2179C12.1193 10.1235 11.6181 9.82749 11.2757 9.41989C10.8816 8.95065 10.75 8.396 10.75 8C10.75 7.604 10.8816 7.04935 11.2757 6.58011Z"/>
		</g>
		<g id="img-html">
			<path xmlns="http://www.w3.org/2000/svg" fill="#000000" d="M3 1.5C2.86193 1.5 2.75 1.61193 2.75 1.75V11.3003C2.75 11.3896 2.79769 11.4722 2.87509 11.5168L7.73381 14.3194C7.80942 14.363 7.90231 14.364 7.97886 14.3221L13.1201 11.5048C13.2002 11.4609 13.25 11.3769 13.25 11.2856V1.75C13.25 1.61193 13.1381 1.5 13 1.5H3ZM1.25 1.75C1.25 0.783502 2.0335 0 3 0H13C13.9665 0 14.75 0.783503 14.75 1.75V11.2856C14.75 11.9248 14.4015 12.5131 13.841 12.8203L8.69968 15.6375C8.16383 15.9311 7.51363 15.924 6.98434 15.6187L2.12562 12.8162C1.58382 12.5037 1.25 11.9258 1.25 11.3003V1.75ZM5 4.25C5 3.83579 5.33579 3.5 5.75 3.5H10.3654C10.7796 3.5 11.1154 3.83579 11.1154 4.25C11.1154 4.66421 10.7796 5 10.3654 5H6.5V6.71154H10.3654C10.7796 6.71154 11.1154 7.04732 11.1154 7.46154V10.3462C11.1154 10.6302 10.9549 10.8899 10.7008 11.017L8.3931 12.1708C8.18196 12.2764 7.93343 12.2764 7.72228 12.1708L5.41459 11.017C5.1605 10.8899 5 10.6302 5 10.3462V9.76923C5 9.35502 5.33579 9.01923 5.75 9.01923C6.16421 9.01923 6.5 9.35502 6.5 9.76923V9.88263L8.05769 10.6615L9.61539 9.88263V8.21154H5.75C5.33579 8.21154 5 7.87575 5 7.46154V4.25Z"/>
		</g>
		<g id="img-c-sharp">
			<path xmlns="http://www.w3.org/2000/svg" fill="#000000" d="M7.00017 5.5C5.61936 5.5 4.5 6.61936 4.5 8.00017C4.5 9.38097 5.61936 10.5003 7.00017 10.5003C7.71226 10.5003 8.3538 10.2036 8.81009 9.725C9.09591 9.4252 9.57065 9.41386 9.87045 9.69968C10.1703 9.9855 10.1816 10.4602 9.89577 10.76C9.16817 11.5232 8.13926 12.0003 7.00017 12.0003C4.79094 12.0003 3 10.2094 3 8.00017C3 5.79094 4.79094 4 7.00017 4C8.13445 4 9.15952 4.47309 9.88658 5.23069C10.1734 5.52954 10.1636 6.00432 9.86477 6.29112C9.56591 6.57793 9.09114 6.56817 8.80433 6.26931C8.3484 5.79424 7.70928 5.5 7.00017 5.5Z"/><path xmlns="http://www.w3.org/2000/svg" fill="#000000" d="M6.58638 0.102166C6.8199 -0.0340553 7.10867 -0.0340553 7.34219 0.102166L12.0565 2.85217C12.4143 3.06088 12.5351 3.52011 12.3264 3.8779C12.1177 4.23569 11.6585 4.35654 11.3007 4.14783L6.96429 1.61828L1.5 4.80578V11.1942L6.96429 14.3817L11.3007 11.8522C11.6585 11.6435 12.1177 11.7643 12.3264 12.1221C12.5351 12.4799 12.4143 12.9391 12.0565 13.1478L7.34219 15.8978C7.10867 16.0341 6.8199 16.0341 6.58638 15.8978L0.372097 12.2728C0.141683 12.1384 0 11.8918 0 11.625V4.375C0 4.10825 0.141683 3.86157 0.372097 3.72717L6.58638 0.102166Z"/><path xmlns="http://www.w3.org/2000/svg" fill="#000000" d="M12.1799 5.25C12.456 5.25 12.6799 5.47386 12.6799 5.75V10.25C12.6799 10.5261 12.456 10.75 12.1799 10.75C11.9038 10.75 11.6799 10.5261 11.6799 10.25V5.75C11.6799 5.47386 11.9038 5.25 12.1799 5.25Z"/><path xmlns="http://www.w3.org/2000/svg" fill="#000000" d="M14.3201 5.25C14.5962 5.25 14.8201 5.47386 14.8201 5.75V10.25C14.8201 10.5261 14.5962 10.75 14.3201 10.75C14.044 10.75 13.8201 10.5261 13.8201 10.25V5.75C13.8201 5.47386 14.044 5.25 14.3201 5.25Z"/><path xmlns="http://www.w3.org/2000/svg" fill="#000000" d="M10.5 6.92993C10.5 6.65379 10.7239 6.42993 11 6.42993H15.5C15.7761 6.42993 16 6.65379 16 6.92993C16 7.20607 15.7761 7.42993 15.5 7.42993H11C10.7239 7.42993 10.5 7.20607 10.5 6.92993Z"/><path xmlns="http://www.w3.org/2000/svg" fill="#000000" d="M10.5 9.07007C10.5 8.79393 10.7239 8.57007 11 8.57007H15.5C15.7761 8.57007 16 8.79393 16 9.07007C16 9.34621 15.7761 9.57007 15.5 9.57007H11C10.7239 9.57007 10.5 9.34621 10.5 9.07007Z"/>
		</g>
	</defs>
</svg>

<!-- Usage -->

<svg width="800" height="800" viewBox="0 0 16 16" xmlns="http://www.w3.org/2000/svg" version="1.1" preserveAspectRatio="xMinYMin">
	<use xlink:href="#img-vscode"></use>
</svg>